<svg xmlns="http://www.w3.org/2000/svg" viewBox="0 0 240 180"><defs><style>.cls-1{fill:#f1f3f5;}.cls-1,.cls-3,.cls-4,.cls-7,.cls-8{stroke:#1d2b36;}.cls-1,.cls-3,.cls-4,.cls-6,.cls-7,.cls-8{stroke-linejoin:round;stroke-width:4px;}.cls-2,.cls-3{fill:#c1cbd4;}.cls-4{fill:#3197d6;}.cls-5{fill:#71bff1;}.cls-6,.cls-8{fill:none;stroke-linecap:round;}.cls-6{stroke:#3197d6;}.cls-7{fill:#fff;}</style></defs><title>Asset 3</title><g id="Layer_2" data-name="Layer 2"><g id="Layer_1-2" data-name="Layer 1"><path class="cls-1" d="M12,162H228a0,0,0,0,1,0,0v8a8,8,0,0,1-8,8H20a8,8,0,0,1-8-8v-8A0,0,0,0,1,12,162Z"/><path class="cls-2" d="M218,164v2a6,6,0,0,1-6,6H14.35A6,6,0,0,0,20,176H220a6,6,0,0,0,6-6v-6Z"/><path class="cls-3" d="M102,162h36a0,0,0,0,1,0,0v0a8,8,0,0,1-8,8H110a8,8,0,0,1-8-8v0A0,0,0,0,1,102,162Z"/><path class="cls-1" d="M32,24H208a8,8,0,0,1,8,8V162a0,0,0,0,1,0,0H24a0,0,0,0,1,0,0V32A8,8,0,0,1,32,24Z"/><rect class="cls-4" x="34" y="34" width="172" height="118" rx="4" ry="4"/><polygon class="cls-5" points="169 36 105 36 55 150 119 150 169 36"/><polygon class="cls-5" points="198 36 182 36 132 150 148 150 198 36"/><rect class="cls-1" x="59" y="59" width="120" height="68" rx="11" ry="11"/><polyline class="cls-6" points="102.02 109.23 89.22 93.23 102.02 77.23"/><polyline class="cls-6" points="135.98 109.23 148.78 93.23 135.98 77.23"/><line class="cls-6" x1="128.6" y1="73" x2="109.4" y2="113"/><circle class="cls-7" cx="212" cy="28" r="26"/><polyline class="cls-6" points="202 29.5 208.5 36 222 23"/><line class="cls-8" x1="238" y1="178" x2="2" y2="178"/></g></g></svg>