<svg xmlns="http://www.w3.org/2000/svg" viewBox="0 0 235 179.17"><defs><style>.cls-1{fill:#f1f3f5;}.cls-1,.cls-2,.cls-3,.cls-4,.cls-5,.cls-7,.cls-8{stroke:#1d2b36;stroke-linejoin:round;}.cls-1,.cls-2,.cls-3,.cls-4,.cls-5,.cls-7,.cls-8,.cls-9{stroke-width:4px;}.cls-2{fill:#3197d6;}.cls-3{fill:#ffc646;}.cls-4{fill:#237ab3;}.cls-5{fill:#c1cbd4;}.cls-6{fill:#b4c0ca;}.cls-7{fill:#fff;}.cls-8,.cls-9{fill:none;stroke-linecap:round;}.cls-9{stroke:#c1cbd4;stroke-miterlimit:10;}</style></defs><title>Asset 2</title><g id="Layer_2" data-name="Layer 2"><g id="Layer_1-2" data-name="Layer 1"><polygon class="cls-1" points="207.34 124.12 218.82 111.85 192.02 106.73 198.17 122.37 207.34 124.12"/><rect class="cls-2" x="196.79" y="56.33" width="27.28" height="53.43" transform="translate(19.31 -37.99) rotate(10.81)"/><line class="cls-3" x1="201.29" y1="108.5" x2="211.32" y2="56.02"/><rect class="cls-4" x="214.94" y="57.9" width="8.41" height="53.43" transform="translate(19.76 -39.6) rotate(10.81)"/><rect class="cls-1" x="199.14" y="49.5" width="34.1" height="6.8" rx="3.4" ry="3.4" transform="translate(13.78 -39.65) rotate(10.82)"/><path class="cls-5" d="M224.92,31.42,216,29.71a9.09,9.09,0,0,0-10.64,7.23l-1.92,10,17.87,3.41,8.93,1.71,1.92-10A9.09,9.09,0,0,0,224.92,31.42Z"/><path class="cls-6" d="M224.67,33.41a7.05,7.05,0,0,1,.52,4.27,8.23,8.23,0,0,1-9.62,6.54l-9.23-1.76-.56,2.94,22.87,4.37,1.54-8.08A7.1,7.1,0,0,0,224.67,33.41Z"/><path class="cls-1" d="M198.17,122.37l2.54,6.46a1.14,1.14,0,0,0,1.89.36l4.74-5.07Z"/><rect class="cls-5" x="51" y="9.58" width="120" height="160" rx="12" ry="12" transform="translate(-14.41 21.63) rotate(-10.46)"/><rect class="cls-7" x="51" y="9.58" width="120" height="160" rx="12" ry="12"/><path class="cls-8" d="M27.18,133.22,16.41,118.8a8,8,0,0,0-11.2-1.62h0a8,8,0,0,0-1.62,11.2L18,147.6a4,4,0,0,0,5.6.81h0a4,4,0,0,0,.81-5.6L16,131.6"/><path class="cls-8" d="M30.34,93.05,33.7,75.37A8,8,0,0,0,27.33,66h0A8,8,0,0,0,18,72.38L13.51,96a4,4,0,0,0,3.18,4.68h0a4,4,0,0,0,4.68-3.18L24,83.7"/><path class="cls-8" d="M148.29,128.53,133.66,118a8,8,0,0,0-11.16,1.84h0a8,8,0,0,0,1.84,11.16l19.51,14a4,4,0,0,0,5.58-.92h0a4,4,0,0,0-.92-5.58l-11.38-8.16"/><line class="cls-9" x1="71" y1="40.58" x2="151" y2="40.58"/><line class="cls-9" x1="71" y1="60.58" x2="151" y2="60.58"/><line class="cls-9" x1="71" y1="80.58" x2="151" y2="80.58"/><line class="cls-9" x1="71" y1="100.58" x2="151" y2="100.58"/><line class="cls-9" x1="71" y1="120.58" x2="104" y2="120.58"/></g></g></svg>