<svg xmlns="http://www.w3.org/2000/svg" viewBox="0 0 234.16 180"><defs><style>.cls-1,.cls-6{fill:#f1f3f5;}.cls-1,.cls-3,.cls-6{stroke:#1d2b36;}.cls-1,.cls-3,.cls-5,.cls-6{stroke-linejoin:round;stroke-width:4px;}.cls-2{fill:#c1cbd4;}.cls-3{fill:#3197d6;}.cls-4{fill:#237ab3;}.cls-5{fill:none;stroke:#fff;}.cls-5,.cls-6{stroke-linecap:round;}</style></defs><title>Asset 1</title><g id="Layer_2" data-name="Layer 2"><g id="Layer_1-2" data-name="Layer 1"><rect class="cls-1" x="2" y="2" width="120" height="120" rx="8" ry="8"/><path class="cls-2" d="M114,4h-2V106a6,6,0,0,1-6,6H4v2a6,6,0,0,0,6,6H114a6,6,0,0,0,6-6V10A6,6,0,0,0,114,4Z"/><circle class="cls-3" cx="120" cy="118" r="60"/><path class="cls-4" d="M156.8,73.2a58,58,0,0,1-81.6,81.6,58,58,0,1,0,81.6-81.6Z"/><path class="cls-5" d="M70.44,102.23A52.25,52.25,0,0,1,92.56,73.85"/><path class="cls-5" d="M100.18,69.92q.8-.33,1.62-.64"/><path class="cls-4" d="M161.63,77.67l-27.86,48.25a8,8,0,0,0,6.93,12h33.77a57.91,57.91,0,0,0-12.85-60.25Z"/><path class="cls-1" d="M178,129H131.86a8,8,0,0,1-6.93-12L148,77l23.07-40a8,8,0,0,1,13.86,0L208,77l23.07,40a8,8,0,0,1-6.93,12Z"/><path class="cls-2" d="M229.34,118l-5-8.33a6.29,6.29,0,0,1,.17,6.21,5.94,5.94,0,0,1-5.22,3H127a6.17,6.17,0,0,1-.76,0,6,6,0,0,0,5.6,8.13h92.29a6,6,0,0,0,5.2-9Z"/><line class="cls-6" x1="84" y1="178" x2="156" y2="178"/></g></g></svg>