<svg id="Layer_1" xmlns="http://www.w3.org/2000/svg" viewBox="0 0 137.5 166.1">
    <style>.st0{fill:#3797d3}</style>
    <path class="st0" d="M9.9 97.2l48.6-48.6c6.3-6.2 10.2-14.9 10.2-24.4 0-9.4-3.8-18-9.9-24.2L10.2 48.6C3.9 54.8 0 63.5 0 73s3.8 18 9.9 24.2zm117.7-28.4L79 117.4c-6.3 6.2-10.2 14.9-10.2 24.4 0 9.4 3.8 18 9.9 24.2l48.6-48.6c6.3-6.2 10.2-14.9 10.2-24.4s-3.8-18-9.9-24.2zm-.3-20.1c6.3-6.2 10.2-14.9 10.2-24.4 0-9.4-3.8-18-9.9-24.2L10.2 117.4C3.9 123.7 0 132.3 0 141.9c0 9.4 3.8 18 9.9 24.2L127.3 48.7z"/>
</svg>